HIERARCHY
ROOT Pelvis
{
	OFFSET 0.000000 0.000000 0.000000
	CHANNELS 6 Xposition Yposition Zposition Xrotation Yrotation Zrotation
	JOINT LeftUpLeg_virtual
	{
		OFFSET 0.000000 0.000000 0.000000
		CHANNELS 3 Xrotation Yrotation Zrotation
		JOINT LeftUpLeg
		{
			OFFSET 18.735201 -5.666702 -4.541200
			CHANNELS 3 Xrotation Yrotation Zrotation
			JOINT LeftLeg
			{
				OFFSET -0.021200 -31.938179 0.493100
				CHANNELS 3 Xrotation Yrotation Zrotation
				JOINT LeftFoot
				{
					OFFSET 0.021200 -31.938179 -4.336299
					CHANNELS 3 Xrotation Yrotation Zrotation
					JOINT LeftToeBase
					{
						OFFSET 0.943001 -26.722000 15.023500
						CHANNELS 3 Xrotation Yrotation Zrotation
						End Site
						{
							OFFSET 0 0 0
						}
					}
				}
			}
		}
	}
	JOINT RightUpLeg_virtual
	{
		OFFSET 0.000000 0.000000 0.000000
		CHANNELS 3 Xrotation Yrotation Zrotation
		JOINT RightUpLeg
		{
			OFFSET -18.735201 -5.666702 -4.541200
			CHANNELS 3 Xrotation Yrotation Zrotation
			JOINT RightLeg
			{
				OFFSET 0.018946 -31.938133 0.493100
				CHANNELS 3 Xrotation Yrotation Zrotation
				JOINT RightFoot
				{
					OFFSET -0.018946 -31.938126 -4.336299
					CHANNELS 3 Xrotation Yrotation Zrotation
					JOINT RightToeBase
					{
						OFFSET -0.943001 -26.722004 15.023500
						CHANNELS 3 Xrotation Yrotation Zrotation
						End Site
						{
							OFFSET 0 0 0
						}
					}
				}
			}
		}
	}
	JOINT Hips_virtual
	{
		OFFSET 0.000000 0.000000 0.000000
		CHANNELS 3 Xrotation Yrotation Zrotation
		JOINT Hips
		{
			OFFSET -0.000000 -0.000000 -0.000000
			CHANNELS 3 Xrotation Yrotation Zrotation
			JOINT Spine
			{
				OFFSET 0.000000 10.199997 -0.299500
				CHANNELS 3 Xrotation Yrotation Zrotation
				JOINT Spine1
				{
					OFFSET 0.000000 11.900002 -1.516600
					CHANNELS 3 Xrotation Yrotation Zrotation
					JOINT Spine2
					{
						OFFSET 0.000000 13.600006 -2.842500
						CHANNELS 3 Xrotation Yrotation Zrotation
						JOINT Neck_virtual
						{
							OFFSET 0.000000 0.000000 0.000000
							CHANNELS 3 Xrotation Yrotation Zrotation
							JOINT Neck
							{
								OFFSET 0.000000 9.624100 -2.890100
								CHANNELS 3 Xrotation Yrotation Zrotation
								JOINT Head
								{
									OFFSET 0.000000 14.068802 -1.351900
									CHANNELS 3 Xrotation Yrotation Zrotation
									End Site
									{
										OFFSET 0 0 0
									}
								}
							}
						}
						JOINT LeftShoulder_virtual
						{
							OFFSET 0.000000 0.000000 0.000000
							CHANNELS 3 Xrotation Yrotation Zrotation
							JOINT LeftShoulder
							{
								OFFSET 15.263000 10.923401 -0.547700
								CHANNELS 3 Xrotation Yrotation Zrotation
								JOINT LeftArm
								{
									OFFSET 25.438599 -2.830597 -13.032500
									CHANNELS 3 Xrotation Yrotation Zrotation
									JOINT LeftForeArm
									{
										OFFSET 29.960503 0.000000 0.000000
										CHANNELS 3 Xrotation Yrotation Zrotation
										JOINT LeftHand
										{
											OFFSET 27.849251 0.000000 0.000000
											CHANNELS 3 Xrotation Yrotation Zrotation
											End Site
											{
												OFFSET 0 0 0
											}
										}
									}
								}
							}
						}
						JOINT RightShoulder_virtual
						{
							OFFSET 0.000000 0.000000 0.000000
							CHANNELS 3 Xrotation Yrotation Zrotation
							JOINT RightShoulder
							{
								OFFSET -15.263000 10.923401 -0.547700
								CHANNELS 3 Xrotation Yrotation Zrotation
								JOINT RightArm
								{
									OFFSET -25.438599 -2.830597 -13.032500
									CHANNELS 3 Xrotation Yrotation Zrotation
									JOINT RightForeArm
									{
										OFFSET -29.960503 0.000000 0.000000
										CHANNELS 3 Xrotation Yrotation Zrotation
										JOINT RightHand
										{
											OFFSET -27.849251 0.000000 0.000000
											CHANNELS 3 Xrotation Yrotation Zrotation
											End Site
											{
												OFFSET 0 0 0
											}
										}
									}
								}
							}
						}
					}
				}
			}
		}
	}
}
MOTION
Frames: 4
Frame Time: 0.03333333
1.810786 94.106499 4.699696 0.000000 0.000000 0.000000 -4.973479 9.770785 -1.053486 -36.604271 -7.829174 -7.569262 46.839614 0.304501 2.318399 30.250187 5.382142 7.229608 0.000000 0.000000 0.000000 -4.077505 10.085697 -1.702304 -17.916397 -12.370696 3.962938 32.937146 8.134622 -1.467866 7.533406 3.258764 -6.723812 0.000000 0.000000 0.000000 -4.488100 10.638927 -1.383815 -1.477362 0.106027 -0.038737 8.416775 0.483070 0.305659 -2.450063 -0.488693 1.873871 0.000000 0.000000 0.000000 -3.956767 -0.030162 1.253111 -1.202390 -0.143820 0.197288 0.000000 0.000000 0.000000 -3.618550 0.004185 1.236390 1.192581 1.224491 -4.755502 -5.045484 -6.079804 -78.207906 22.446638 -19.122055 1.187338 0.000000 0.000000 0.000000 -3.460500 -0.107175 1.294353 -0.079803 5.387720 5.747326 -1.363088 7.583106 74.277105 8.106239 17.527237 -1.507702 0.000000 0.000000 0.000000 
1.626817 94.441505 6.381495 0.000000 0.000000 0.000000 -4.844844 8.436006 -0.753902 -36.346749 -8.454422 -7.058648 42.509772 -0.639684 2.248634 28.587313 3.336049 4.948950 0.000000 0.000000 0.000000 -3.883409 9.142058 -1.839764 -18.223839 -12.974556 3.521611 35.061014 8.304859 -1.302071 9.918539 2.638161 -6.442462 0.000000 0.000000 0.000000 -4.478801 9.511879 -1.144741 -1.247674 0.005640 -0.086879 8.167564 0.787282 0.371078 -2.564674 -0.347894 1.840305 0.000000 0.000000 0.000000 -4.019508 0.033688 1.249625 -1.217675 -0.145537 0.133956 0.000000 0.000000 0.000000 -3.758227 0.098427 1.264438 1.054242 1.817474 -5.004633 -4.010776 -5.744343 -78.372418 22.729430 -19.529393 1.248580 0.000000 0.000000 0.000000 -3.578809 -0.021147 1.278049 -0.050069 5.720731 5.654662 -2.252910 8.231318 74.298914 8.145858 18.318094 -1.680441 0.000000 0.000000 0.000000 
1.548138 94.894455 8.559311 0.000000 0.000000 0.000000 -4.015430 6.123659 -0.743120 -35.599694 -7.499820 -5.976548 34.201933 -1.093892 1.733065 28.138387 2.203187 2.751771 0.000000 0.000000 0.000000 -3.508466 7.275200 -1.951308 -17.415499 -14.605169 3.059938 35.680618 9.132170 -0.898183 11.795151 2.371327 -7.025717 0.000000 0.000000 0.000000 -4.098792 7.138010 -1.046028 -0.321832 -0.549648 -0.386295 7.821907 1.239126 0.582443 -2.794669 -0.237343 1.862306 0.000000 0.000000 0.000000 -4.167940 0.106255 1.304870 -1.223213 -0.096231 -0.017932 0.000000 0.000000 0.000000 -4.007123 0.193891 1.361951 1.002167 3.200034 -5.760602 -2.539750 -5.222071 -78.117106 23.461358 -20.191151 1.542707 0.000000 0.000000 0.000000 -3.787079 0.062545 1.331704 0.168658 6.119193 4.587329 -2.823422 8.732622 74.890210 8.283795 19.787190 -2.055906 0.000000 0.000000 0.000000 
1.542881 95.209885 11.070166 0.000000 0.000000 0.000000 -2.905461 3.449801 -1.008184 -34.878887 -4.949941 -4.436403 24.140289 -1.305792 1.088890 29.923479 1.796752 0.714182 0.000000 0.000000 0.000000 -3.025183 4.786694 -2.092454 -15.026939 -16.946533 2.773673 34.533867 10.348517 -0.133551 11.086149 2.490666 -8.138857 0.000000 0.000000 0.000000 -3.381758 4.107044 -1.194364 0.182181 -0.870301 -0.430579 7.445319 1.713208 0.913089 -3.069260 -0.188211 1.960295 0.000000 0.000000 0.000000 -4.371581 0.145444 1.427351 -1.240370 0.004035 -0.207526 0.000000 0.000000 0.000000 -4.271145 0.254766 1.532017 1.046747 5.183300 -6.773051 -0.949475 -4.530711 -77.387116 24.517056 -20.925644 2.013697 0.000000 0.000000 0.000000 -4.014197 0.118891 1.471429 0.506675 6.524300 2.810076 -3.386831 9.217912 75.889160 8.379811 20.820986 -2.461085 0.000000 0.000000 0.000000 
